PathFileType	4	(X/Y/Z)	/Users/itak/Documents/Research/Walk-IL/dataset/trc/00081_00006.trc
DataRate	CameraRate	NumFrames	NumMarkers	Units	OrigDataRate	OrigDataStartFrame	OrigNumFrames
100.000000	100.000000	4	53	mm	100.000000	438	501
Frame#	Time	RPSI			LPSI			L3			STRN			T10			C7			CLAV			RBAK			LBAK			LSHO			LUPA			LAEL			LAOL			LWTS			LWPS			LFRA			LIFD			LHPS			LHTS			RSHO			RUPA			RAEL			RAOL			RWTS			RWPS			RFRA			RIFD			RHTS			RHPS			RBHD			LFHD			RFHD			LBHD			LHIP			RHIP			RASI			LASI			LKNE			LTHI			LANK			LTIP			LTOE			LMT1			LMT5			LHEE			RKNE			RTHI			RANK			RTIP			RTOE			RMT1			RMT5			RHEE			
		X1	Y1	Z1	X2	Y2	Z2	X3	Y3	Z3	X4	Y4	Z4	X5	Y5	Z5	X6	Y6	Z6	X7	Y7	Z7	X8	Y8	Z8	X9	Y9	Z9	X10	Y10	Z10	X11	Y11	Z11	X12	Y12	Z12	X13	Y13	Z13	X14	Y14	Z14	X15	Y15	Z15	X16	Y16	Z16	X17	Y17	Z17	X18	Y18	Z18	X19	Y19	Z19	X20	Y20	Z20	X21	Y21	Z21	X22	Y22	Z22	X23	Y23	Z23	X24	Y24	Z24	X25	Y25	Z25	X26	Y26	Z26	X27	Y27	Z27	X28	Y28	Z28	X29	Y29	Z29	X30	Y30	Z30	X31	Y31	Z31	X32	Y32	Z32	X33	Y33	Z33	X34	Y34	Z34	X35	Y35	Z35	X36	Y36	Z36	X37	Y37	Z37	X38	Y38	Z38	X39	Y39	Z39	X40	Y40	Z40	X41	Y41	Z41	X42	Y42	Z42	X43	Y43	Z43	X44	Y44	Z44	X45	Y45	Z45	X46	Y46	Z46	X47	Y47	Z47	X48	Y48	Z48	X49	Y49	Z49	X50	Y50	Z50	X51	Y51	Z51	X52	Y52	Z52	X53	Y53	Z53	

439	4.38	590.2645263671875	1021.671569824219	-412.9006042480469	415.6494750976562	1005.531860351562	-430.9466857910156	499.4475402832031	1074.490844726562	-424.2304382324219	533.3839111328125	1277.033447265625	-672.7479858398438	496.3192138671875	1208.41552734375	-407.3566284179688	500.6695556640625	1475.713500976562	-464.5465698242188	526.4613037109375	1391.34765625	-642.4061279296875	568.1554565429688	1336.453125	-393.8876342773438	399.1141052246094	1438.109741210938	-455.3148803710938	339.6943054199219	1443.113647460938	-566.743408203125	258.6526184082031	1317.783813476562	-557.29736328125	232.0364990234375	1105.70703125	-572.4639892578125	315.7333984375	1088.689086914062	-503.4903869628906	285.9170837402344	861.6722412109375	-657.1516723632812	224.6384582519531	854.8759155273438	-599.5314331054688	219.0570068359375	996.8084106445312	-591.2784423828125	294.0237121582031	674.1596069335938	-661.8583374023438	223.6668548583984	774.0039672851562	-628.7904663085938	277.0374755859375	777.60693359375	-676.184814453125	682.5296020507812	1441.795654296875	-505.1940002441406	744.2444458007812	1374.77099609375	-487.4579467773438	798.7561645507812	1115.724487304688	-462.2207946777344	709.013671875	1086.381591796875	-491.9950561523438	795.9335327148438	882.7559814453125	-639.19775390625	838.5247802734375	859.717041015625	-567.3239135742188	816.0076293945312	1035.824462890625	-481.8695983886719	792.4180908203125	698.7626342773438	-675.8053588867188	804.4459838867188	788.6919555664062	-678.731201171875	851.4765625	779.3455200195312	-618.4789428710938	460.327880859375	1651.107055664062	-494.7146606445312	591.5895385742188	1695.48486328125	-660.3792114257812	465.3451538085938	1703.898193359375	-665.470703125	597.1439208984375	1636.072998046875	-499.3623962402344	339.3171081542969	951.7993774414062	-556.454833984375	677.5462036132812	952.9091186523438	-468.6438903808594	675.0347290039062	970.6139526367188	-593.8553466796875	414.0529479980469	966.494873046875	-652.0003662109375	426.0592041015625	509.1810607910156	-722.0527954101562	373.5950927734375	639.0884399414062	-664.868408203125	415.420166015625	43.5899543762207	-610.9657592773438	405.8851318359375	263.1642456054688	-659.7710571289062	448.6697082519531	39.25818634033203	-812.22802734375	493.8816528320312	42.27886581420898	-756.6629638671875	389.0585327148438	36.14996719360352	-717.339111328125	483.578369140625	47.61069107055664	-548.9378051757812	648.1575927734375	508.0760192871094	-537.9158325195312	689.7798461914062	777.2239379882812	-545.8281860351562	593.9727172851562	40.99513626098633	-405.0140991210938	640.3381958007812	385.0583801269531	-508.6013488769531	611.8372192382812	32.62506484985352	-623.8319091796875	557.8142700195312	41.08249282836914	-574.9785766601562	639.6730346679688	38.73583221435547	-520.1168212890625	527.9972534179688	45.28628921508789	-375.0754089355469	
440	4.39	590.854736328125	1021.330383300781	-417.0145874023438	416.2440490722656	1005.280395507812	-435.2999572753906	500.0244140625	1073.988647460938	-428.5086975097656	533.5182495117188	1276.8369140625	-676.49755859375	496.7774047851562	1207.886108398438	-411.2960205078125	501.0487060546875	1475.306762695312	-468.0430297851562	526.622802734375	1391.156372070312	-646.0830688476562	568.563232421875	1335.945434570312	-397.5765686035156	399.5116271972656	1437.607543945312	-458.7795104980469	339.9161376953125	1442.80810546875	-570.082763671875	258.8946838378906	1317.41455078125	-560.64599609375	232.5810394287109	1105.235717773438	-575.9225463867188	316.4441528320312	1088.287109375	-507.0760803222656	286.9785461425781	861.397705078125	-660.8152465820312	225.7126770019531	854.4194946289062	-603.2097778320312	219.8247375488281	996.3124389648438	-594.8045654296875	295.4961853027344	673.962646484375	-665.7816162109375	224.9202880859375	773.5805053710938	-632.56982421875	278.2976989746094	777.363525390625	-679.9385986328125	682.8515625	1441.347412109375	-508.9293823242188	744.5094604492188	1374.195922851562	-491.3574523925781	799.3905639648438	1115.121337890625	-467.0867309570312	709.6104736328125	1085.801147460938	-496.6497497558594	795.5843505859375	883.1539916992188	-645.4193115234375	838.64501953125	859.671875	-573.9759521484375	816.6959228515625	1035.23828125	-487.1929016113281	791.6548461914062	699.331298828125	-683.0761108398438	803.8052978515625	789.3743286132812	-685.5768432617188	851.2398681640625	779.564697265625	-625.6473388671875	461.0173950195312	1651.084106445312	-498.3030700683594	592.05712890625	1695.063110351562	-664.228759765625	465.8228759765625	1703.62841796875	-669.13427734375	597.7969970703125	1635.873657226562	-503.164306640625	340.0625305175781	951.3974609375	-560.9595947265625	678.2491455078125	952.5408935546875	-472.6806335449219	675.9278564453125	970.3702392578125	-597.9468383789062	414.9247741699219	966.1192016601562	-656.3477783203125	427.2571716308594	507.8785400390625	-723.05029296875	374.6573486328125	638.1172485351562	-666.8294677734375	415.4387512207031	43.41351318359375	-610.6111450195312	406.7258605957031	262.1790771484375	-660.595458984375	449.0549011230469	38.23900604248047	-811.9611206054688	494.3130798339844	41.31021881103516	-756.4034423828125	389.2219848632812	35.746337890625	-717.1134033203125	483.5912475585938	47.09062194824219	-548.4948120117188	648.5618896484375	507.5939636230469	-541.6557006835938	690.5296020507812	776.6162719726562	-549.4808959960938	593.8374633789062	41.42055511474609	-405.3782653808594	640.6099243164062	384.6480712890625	-511.8287353515625	611.8421020507812	32.57448196411133	-623.9775390625	557.7288208007812	40.99172592163086	-575.2192993164062	639.5031127929688	38.8487548828125	-520.3397216796875	527.8626708984375	45.5536994934082	-375.4137878417969	
441	4.4	591.3662109375	1020.995849609375	-420.9632568359375	416.7421875	1005.158447265625	-439.5569458007812	500.5125732421875	1073.5263671875	-432.7048034667969	533.6651611328125	1276.6318359375	-680.1787109375	497.1524353027344	1207.409301757812	-415.1671447753906	501.3515319824219	1474.945556640625	-471.5203552246094	526.7864990234375	1390.9609375	-649.7118530273438	568.8711547851562	1335.49365234375	-401.1927490234375	399.8314819335938	1437.150390625	-462.2715454101562	340.1117248535156	1442.534790039062	-573.4767456054688	259.0900573730469	1317.08837890625	-564.082763671875	233.0550231933594	1104.803955078125	-579.5082397460938	317.0412902832031	1087.928344726562	-510.7176818847656	288.0706787109375	861.1904296875	-664.60009765625	226.77978515625	854.0071411132812	-607.057861328125	220.5519714355469	995.8590087890625	-598.4862060546875	297.0457153320312	673.8414306640625	-669.8702392578125	226.2072143554688	773.2001342773438	-636.5474853515625	279.6190490722656	777.1854858398438	-683.8414916992188	683.1107788085938	1440.924072265625	-512.55859375	744.7175903320312	1373.650268554688	-495.1193542480469	799.8546142578125	1114.52392578125	-471.7215270996094	710.0778198242188	1085.252685546875	-501.1303405761719	795.219482421875	883.570068359375	-651.4240112304688	838.6423950195312	859.6192626953125	-580.3194580078125	817.2178344726562	1034.655395507812	-492.2770080566406	790.8494262695312	699.8787231445312	-690.10498046875	803.1824340820312	790.0819702148438	-692.1668090820312	850.9228515625	779.7734375	-632.4913940429688	461.6870422363281	1651.053100585938	-501.8004150390625	592.474365234375	1694.703491210938	-667.9765014648438	466.259765625	1703.412109375	-672.6898193359375	598.4163208007812	1635.668701171875	-506.8810729980469	340.7518615722656	951.1271362304688	-565.3013305664062	678.8541870117188	952.098876953125	-476.5193786621094	676.8212890625	970.0692749023438	-601.8262939453125	415.8379516601562	965.77490234375	-660.5604858398438	428.4626770019531	506.7607727050781	-724.1443481445312	375.5890197753906	637.275634765625	-668.822998046875	415.4952697753906	43.36423110961914	-610.3928833007812	407.5985107421875	261.3086547851562	-661.5982666015625	449.4140625	37.61177444458008	-811.8041381835938	494.7367858886719	40.58762741088867	-756.266357421875	389.4389953613281	35.46755218505859	-716.9740600585938	483.6834716796875	46.69625473022461	-548.2352294921875	648.83544921875	507.0476379394531	-545.5752563476562	691.1490478515625	775.9443969726562	-553.1388549804688	593.5935668945312	41.84450531005859	-405.7877197265625	640.7406616210938	384.1784973144531	-515.1385498046875	611.8449096679688	32.52069854736328	-624.158447265625	557.597412109375	40.86954498291016	-575.4977416992188	639.2506103515625	39.00762557983398	-520.5880737304688	527.6178588867188	45.77500915527344	-375.8214111328125	
442	4.41	591.8218383789062	1020.662292480469	-424.749267578125	417.1695556640625	1005.17529296875	-443.6771545410156	500.9267883300781	1073.115844726562	-436.7854614257812	533.8539428710938	1276.43310546875	-683.7908935546875	497.4645690917969	1207.005615234375	-418.9594421386719	501.5995788574219	1474.648559570312	-474.9818115234375	526.9776611328125	1390.772094726562	-653.2886962890625	569.0957641601562	1335.116577148438	-404.7371215820312	400.0903015136719	1436.758422851562	-465.797607421875	340.3025817871094	1442.305419921875	-576.93896484375	259.2646179199219	1316.821533203125	-567.6245727539062	233.4633026123047	1104.4296875	-583.2200927734375	317.5224304199219	1087.63330078125	-514.4141845703125	289.1798095703125	861.064697265625	-668.5042724609375	227.8341522216797	853.6566772460938	-611.0643310546875	221.2409515380859	995.4664306640625	-602.318115234375	298.6669311523438	673.8047485351562	-674.1099853515625	227.5205841064453	772.8793334960938	-640.7047729492188	280.9789733886719	777.082275390625	-687.8875732421875	683.3289184570312	1440.541259765625	-516.0814208984375	744.8858642578125	1373.148681640625	-498.744873046875	800.1610107421875	1113.9501953125	-476.1326293945312	710.420166015625	1084.758666992188	-505.4395141601562	794.8442993164062	883.9990844726562	-657.1939697265625	838.5254516601562	859.5632934570312	-586.3389282226562	817.576904296875	1034.091430664062	-497.123291015625	790.0222778320312	700.4000854492188	-696.8715209960938	802.5810546875	790.8046875	-698.4830932617188	850.529296875	779.977294921875	-638.995361328125	462.3417358398438	1651.012939453125	-505.2107238769531	592.84521484375	1694.42236328125	-671.630126953125	466.652587890625	1703.260375976562	-676.1376953125	599.013671875	1635.465209960938	-510.5208740234375	341.40380859375	951.0225830078125	-569.4395141601562	679.3714599609375	951.5846557617188	-480.1743774414062	677.7047119140625	969.7291259765625	-605.511474609375	416.7689514160156	965.48095703125	-664.6038208007812	429.6391906738281	505.8667297363281	-725.3824462890625	376.4208068847656	636.610107421875	-670.9135131835938	415.6019287109375	43.44480895996094	-610.3220825195312	408.470703125	260.5967712402344	-662.7413940429688	449.768798828125	37.24201202392578	-811.7815551757812	495.1530456542969	40.04329299926758	-756.26025390625	389.6997985839844	35.29707717895508	-716.9403686523438	483.8523864746094	46.46250534057617	-548.1571044921875	648.958740234375	506.4584045410156	-549.5853881835938	691.6463623046875	775.233642578125	-556.8194580078125	593.224609375	42.25730133056641	-406.2390441894531	640.7181396484375	383.6905822753906	-518.4293212890625	611.8502197265625	32.4615478515625	-624.38623046875	557.4166870117188	40.72192001342773	-575.8265380859375	638.9263305664062	39.22428512573242	-520.8704833984375	527.2499389648438	45.95788192749023	-376.3099975585938	
